# xmcd
#
# Track frame offsets:
#	150
#	17827
#	35345
#	44017
#	52707
#	61990
#	70605
#	78370
#	87825
#	96990
#	106520
#	115877
#	124425
#	133435
#	140587
#	149935
#	158712
#	167720
#	178772
#	185647
#
# Disc length: 2588 seconds
#
# Revision: 1
# Processed by: cddbd v1.5.1PL0 Copyright (c) Steve Scherf et al.
# Submitted via: CDex 1.50Beta5
#
DISCID=230a1a14
DTITLE=濱田智之・他 - センチメンタルグラフィティ ORIGINAL SOUNDTRACK
DYEAR=1900
DGENRE=Anime
TTITLE0=タイトル
TTITLE1=旅立ちのテーマ
TTITLE2=北海道のテーマ(沢渡ほのか)
TTITLE3=京都のテーマ(綾崎若菜)
TTITLE4=仙台のテーマ(永倉えみる)
TTITLE5=デートA
TTITLE6=広島のテーマ(七瀬 優)
TTITLE7=高松のテーマ(杉原真奈美)
TTITLE8=大阪のテーマ(森井夏穂)
TTITLE9=デートB
TTITLE10=名古屋のテーマ(山本るりか)
TTITLE11=金沢のテーマ(保坂美由紀)
TTITLE12=福岡のテーマ(松岡千恵)
TTITLE13=ラブソング
TTITLE14=横浜のテーマ(星野明日香)
TTITLE15=青森のテーマ(安達妙子)
TTITLE16=長崎のテーマ(遠藤 晶)
TTITLE17=想い出のオルゴール
TTITLE18=東京のテーマ
TTITLE19=ロマンス
EXTD=
EXTT0=
EXTT1=
EXTT2=
EXTT3=
EXTT4=
EXTT5=
EXTT6=
EXTT7=
EXTT8=
EXTT9=
EXTT10=
EXTT11=
EXTT12=
EXTT13=
EXTT14=
EXTT15=
EXTT16=
EXTT17=
EXTT18=
EXTT19=
PLAYORDER=
